<mxfile host="Electron" modified="2023-12-04T20:20:46.794Z" agent="Mozilla/5.0 (X11; Linux x86_64) AppleWebKit/537.36 (KHTML, like Gecko) draw.io/22.0.3 Chrome/114.0.5735.289 Electron/25.8.4 Safari/537.36" etag="cMYFTjUuRE9sBiGGymHd" version="22.0.3" type="device">
  <diagram id="Gc9YjOzzUXd5oZ5HGR8r" name="Page-1">
    <mxGraphModel dx="1434" dy="775" grid="1" gridSize="10" guides="1" tooltips="1" connect="1" arrows="1" fold="1" page="1" pageScale="1" pageWidth="850" pageHeight="1100" math="0" shadow="0">
      <root>
        <mxCell id="0" />
        <mxCell id="1" parent="0" />
        <mxCell id="3" value="Actor" style="shape=umlActor;verticalLabelPosition=bottom;verticalAlign=top;html=1;fillColor=#1ba1e2;fontColor=#ffffff;strokeColor=#006EAF;" parent="1" vertex="1">
          <mxGeometry x="80" y="110" width="30" height="60" as="geometry" />
        </mxCell>
        <mxCell id="4" value="" style="html=1;points=[];perimeter=orthogonalPerimeter;fillColor=#1ba1e2;fontColor=#ffffff;strokeColor=#006EAF;" parent="1" vertex="1">
          <mxGeometry x="92.5" y="200" width="5" height="400" as="geometry" />
        </mxCell>
        <mxCell id="7" value="" style="html=1;verticalAlign=bottom;labelBackgroundColor=none;endArrow=block;endFill=1;" parent="1" edge="1">
          <mxGeometry width="160" relative="1" as="geometry">
            <mxPoint x="97.5" y="220" as="sourcePoint" />
            <mxPoint x="257.5" y="220" as="targetPoint" />
          </mxGeometry>
        </mxCell>
        <mxCell id="8" value="1: addVar(i)&amp;nbsp;" style="text;html=1;strokeColor=none;fillColor=none;align=left;verticalAlign=middle;whiteSpace=wrap;rounded=0;" parent="1" vertex="1">
          <mxGeometry x="100" y="190" width="160" height="30" as="geometry" />
        </mxCell>
        <mxCell id="9" value=":Controller" style="rounded=0;whiteSpace=wrap;html=1;fillColor=#1ba1e2;fontColor=#ffffff;strokeColor=#006EAF;" parent="1" vertex="1">
          <mxGeometry x="210" y="120" width="120" height="60" as="geometry" />
        </mxCell>
        <mxCell id="10" value="" style="endArrow=none;dashed=1;html=1;startArrow=none;" parent="1" source="12" edge="1">
          <mxGeometry width="50" height="50" relative="1" as="geometry">
            <mxPoint x="264.5" y="730" as="sourcePoint" />
            <mxPoint x="264.5" y="190" as="targetPoint" />
          </mxGeometry>
        </mxCell>
        <mxCell id="11" value="" style="endArrow=none;dashed=1;html=1;" parent="1" target="12" edge="1">
          <mxGeometry width="50" height="50" relative="1" as="geometry">
            <mxPoint x="263" y="660" as="sourcePoint" />
            <mxPoint x="264.5" y="190" as="targetPoint" />
          </mxGeometry>
        </mxCell>
        <mxCell id="12" value="" style="html=1;points=[];perimeter=orthogonalPerimeter;fillColor=#1ba1e2;fontColor=#ffffff;strokeColor=#006EAF;" parent="1" vertex="1">
          <mxGeometry x="260" y="200" width="5" height="390" as="geometry" />
        </mxCell>
        <mxCell id="4dUSTFLWGEPua5pRt4BM-51" value="" style="html=1;verticalAlign=bottom;labelBackgroundColor=none;endArrow=block;endFill=1;exitX=0.669;exitY=0.19;exitDx=0;exitDy=0;exitPerimeter=0;" parent="1" edge="1">
          <mxGeometry width="160" relative="1" as="geometry">
            <mxPoint x="265.00500000000005" y="331.5999999999999" as="sourcePoint" />
            <mxPoint x="491.66" y="330" as="targetPoint" />
          </mxGeometry>
        </mxCell>
        <mxCell id="4dUSTFLWGEPua5pRt4BM-54" value="1.3: top()" style="text;html=1;strokeColor=none;fillColor=none;align=left;verticalAlign=middle;whiteSpace=wrap;rounded=0;" parent="1" vertex="1">
          <mxGeometry x="265" y="310" width="150" height="30" as="geometry" />
        </mxCell>
        <mxCell id="4dUSTFLWGEPua5pRt4BM-59" value="stack:Stack" style="rounded=0;whiteSpace=wrap;html=1;fillColor=#1ba1e2;fontColor=#ffffff;strokeColor=#006EAF;" parent="1" vertex="1">
          <mxGeometry x="450" y="120" width="120" height="60" as="geometry" />
        </mxCell>
        <mxCell id="4dUSTFLWGEPua5pRt4BM-60" value="" style="html=1;points=[];perimeter=orthogonalPerimeter;fillColor=#1ba1e2;fontColor=#ffffff;strokeColor=#006EAF;" parent="1" vertex="1">
          <mxGeometry x="500" y="220" width="5" height="120" as="geometry" />
        </mxCell>
        <mxCell id="4dUSTFLWGEPua5pRt4BM-63" value="" style="html=1;verticalAlign=bottom;labelBackgroundColor=none;endArrow=block;endFill=1;" parent="1" edge="1">
          <mxGeometry width="160" relative="1" as="geometry">
            <mxPoint x="485" y="339.76" as="sourcePoint" />
            <mxPoint x="265" y="339.76" as="targetPoint" />
          </mxGeometry>
        </mxCell>
        <mxCell id="4dUSTFLWGEPua5pRt4BM-64" value="1.5: setVar(i, :NumeroComplesso)" style="text;html=1;strokeColor=none;fillColor=none;align=left;verticalAlign=middle;whiteSpace=wrap;rounded=0;" parent="1" vertex="1">
          <mxGeometry x="265" y="400" width="205" height="30" as="geometry" />
        </mxCell>
        <mxCell id="4dUSTFLWGEPua5pRt4BM-65" value="" style="html=1;verticalAlign=bottom;labelBackgroundColor=none;endArrow=block;endFill=1;" parent="1" edge="1">
          <mxGeometry width="160" relative="1" as="geometry">
            <mxPoint x="355" y="439.76" as="sourcePoint" />
            <mxPoint x="265" y="439.76" as="targetPoint" />
          </mxGeometry>
        </mxCell>
        <mxCell id="4dUSTFLWGEPua5pRt4BM-66" value="" style="endArrow=none;html=1;" parent="1" edge="1">
          <mxGeometry width="50" height="50" relative="1" as="geometry">
            <mxPoint x="265" y="430" as="sourcePoint" />
            <mxPoint x="355" y="430" as="targetPoint" />
          </mxGeometry>
        </mxCell>
        <mxCell id="4dUSTFLWGEPua5pRt4BM-67" value="" style="endArrow=none;html=1;" parent="1" edge="1">
          <mxGeometry width="50" height="50" relative="1" as="geometry">
            <mxPoint x="355" y="439.76" as="sourcePoint" />
            <mxPoint x="355" y="430" as="targetPoint" />
            <Array as="points" />
          </mxGeometry>
        </mxCell>
        <mxCell id="IPnpe8BmmMBv8628hsN2-12" value="alt" style="shape=umlFrame;whiteSpace=wrap;html=1;pointerEvents=0;" parent="1" vertex="1">
          <mxGeometry x="80" y="280" width="479" height="300" as="geometry" />
        </mxCell>
        <mxCell id="IPnpe8BmmMBv8628hsN2-13" value="" style="endArrow=none;dashed=1;html=1;dashPattern=1 3;strokeWidth=2;rounded=0;" parent="1" edge="1">
          <mxGeometry width="50" height="50" relative="1" as="geometry">
            <mxPoint x="73.75" y="460.34" as="sourcePoint" />
            <mxPoint x="565.25" y="460" as="targetPoint" />
          </mxGeometry>
        </mxCell>
        <mxCell id="J4QICzCjCIeAgGi_iA5K-13" value="" style="endArrow=none;dashed=1;html=1;entryX=1.097;entryY=1.004;entryDx=0;entryDy=0;entryPerimeter=0;" parent="1" target="4dUSTFLWGEPua5pRt4BM-60" edge="1">
          <mxGeometry width="50" height="50" relative="1" as="geometry">
            <mxPoint x="505" y="630" as="sourcePoint" />
            <mxPoint x="505" y="360" as="targetPoint" />
          </mxGeometry>
        </mxCell>
        <mxCell id="J4QICzCjCIeAgGi_iA5K-14" value="[getVar(i) != null &amp;amp;&amp;amp; !isEmpty()]" style="text;html=1;align=center;verticalAlign=middle;resizable=0;points=[];autosize=1;strokeColor=none;fillColor=none;" parent="1" vertex="1">
          <mxGeometry x="140" y="280" width="190" height="30" as="geometry" />
        </mxCell>
        <mxCell id="J4QICzCjCIeAgGi_iA5K-15" value="[isEmpty()]" style="text;html=1;align=center;verticalAlign=middle;resizable=0;points=[];autosize=1;strokeColor=none;fillColor=none;" parent="1" vertex="1">
          <mxGeometry x="92.5" y="460" width="80" height="30" as="geometry" />
        </mxCell>
        <mxCell id="J4QICzCjCIeAgGi_iA5K-16" value=":Calculatore" style="rounded=0;whiteSpace=wrap;html=1;fillColor=#1ba1e2;fontColor=#ffffff;strokeColor=#006EAF;" parent="1" vertex="1">
          <mxGeometry x="650" y="120" width="120" height="60" as="geometry" />
        </mxCell>
        <mxCell id="J4QICzCjCIeAgGi_iA5K-17" value="" style="endArrow=none;dashed=1;html=1;startArrow=none;rounded=0;" parent="1" source="J4QICzCjCIeAgGi_iA5K-19" edge="1">
          <mxGeometry width="50" height="50" relative="1" as="geometry">
            <mxPoint x="724.5" y="720" as="sourcePoint" />
            <mxPoint x="724.5" y="180" as="targetPoint" />
          </mxGeometry>
        </mxCell>
        <mxCell id="J4QICzCjCIeAgGi_iA5K-18" value="" style="endArrow=none;dashed=1;html=1;rounded=0;" parent="1" target="J4QICzCjCIeAgGi_iA5K-19" edge="1">
          <mxGeometry width="50" height="50" relative="1" as="geometry">
            <mxPoint x="720" y="640" as="sourcePoint" />
            <mxPoint x="724.5" y="180" as="targetPoint" />
          </mxGeometry>
        </mxCell>
        <mxCell id="J4QICzCjCIeAgGi_iA5K-19" value="" style="html=1;points=[];perimeter=orthogonalPerimeter;fillColor=#1ba1e2;fontColor=#ffffff;strokeColor=#006EAF;" parent="1" vertex="1">
          <mxGeometry x="720" y="370" width="5" height="30" as="geometry" />
        </mxCell>
        <mxCell id="J4QICzCjCIeAgGi_iA5K-20" value="1.4: add(:NumeroComplesso, :NumeroComplesso)" style="text;html=1;strokeColor=none;fillColor=none;align=left;verticalAlign=middle;whiteSpace=wrap;rounded=0;" parent="1" vertex="1">
          <mxGeometry x="265" y="349.76" width="185" height="30" as="geometry" />
        </mxCell>
        <mxCell id="J4QICzCjCIeAgGi_iA5K-21" value="" style="html=1;verticalAlign=bottom;labelBackgroundColor=none;endArrow=block;endFill=1;exitX=0.669;exitY=0.19;exitDx=0;exitDy=0;exitPerimeter=0;" parent="1" edge="1">
          <mxGeometry width="160" relative="1" as="geometry">
            <mxPoint x="265.00500000000005" y="381.3599999999999" as="sourcePoint" />
            <mxPoint x="710" y="380" as="targetPoint" />
          </mxGeometry>
        </mxCell>
        <mxCell id="J4QICzCjCIeAgGi_iA5K-22" value="" style="html=1;verticalAlign=bottom;labelBackgroundColor=none;endArrow=block;endFill=1;" parent="1" edge="1">
          <mxGeometry width="160" relative="1" as="geometry">
            <mxPoint x="710" y="390" as="sourcePoint" />
            <mxPoint x="265" y="389.52" as="targetPoint" />
          </mxGeometry>
        </mxCell>
        <mxCell id="iIwtEuWf38n39qlFTMff-42" value="" style="endArrow=none;dashed=1;html=1;exitX=0.959;exitY=0.15;exitDx=0;exitDy=0;exitPerimeter=0;" parent="1" source="4dUSTFLWGEPua5pRt4BM-60" edge="1">
          <mxGeometry width="50" height="50" relative="1" as="geometry">
            <mxPoint x="505" y="286" as="sourcePoint" />
            <mxPoint x="505" y="190" as="targetPoint" />
          </mxGeometry>
        </mxCell>
        <mxCell id="iIwtEuWf38n39qlFTMff-44" value="" style="html=1;verticalAlign=bottom;labelBackgroundColor=none;endArrow=block;endFill=1;exitX=0.669;exitY=0.19;exitDx=0;exitDy=0;exitPerimeter=0;" parent="1" edge="1">
          <mxGeometry width="160" relative="1" as="geometry">
            <mxPoint x="265.00500000000005" y="231.5999999999999" as="sourcePoint" />
            <mxPoint x="491.66" y="230" as="targetPoint" />
          </mxGeometry>
        </mxCell>
        <mxCell id="iIwtEuWf38n39qlFTMff-45" value="1.1: isEmpty()" style="text;html=1;strokeColor=none;fillColor=none;align=left;verticalAlign=middle;whiteSpace=wrap;rounded=0;" parent="1" vertex="1">
          <mxGeometry x="265" y="210" width="150" height="30" as="geometry" />
        </mxCell>
        <mxCell id="iIwtEuWf38n39qlFTMff-46" value="" style="html=1;verticalAlign=bottom;labelBackgroundColor=none;endArrow=block;endFill=1;" parent="1" edge="1">
          <mxGeometry width="160" relative="1" as="geometry">
            <mxPoint x="485" y="239.76" as="sourcePoint" />
            <mxPoint x="265" y="239.76" as="targetPoint" />
          </mxGeometry>
        </mxCell>
        <mxCell id="iIwtEuWf38n39qlFTMff-48" value="1.2: getVar(i)" style="text;html=1;strokeColor=none;fillColor=none;align=left;verticalAlign=middle;whiteSpace=wrap;rounded=0;" parent="1" vertex="1">
          <mxGeometry x="265" y="240" width="150" height="30" as="geometry" />
        </mxCell>
        <mxCell id="iIwtEuWf38n39qlFTMff-50" value="" style="html=1;verticalAlign=bottom;labelBackgroundColor=none;endArrow=block;endFill=1;rounded=0;" parent="1" edge="1">
          <mxGeometry width="160" relative="1" as="geometry">
            <mxPoint x="355" y="269.31" as="sourcePoint" />
            <mxPoint x="265" y="269.31" as="targetPoint" />
          </mxGeometry>
        </mxCell>
        <mxCell id="iIwtEuWf38n39qlFTMff-51" value="" style="endArrow=none;html=1;rounded=0;" parent="1" edge="1">
          <mxGeometry width="50" height="50" relative="1" as="geometry">
            <mxPoint x="265" y="259.31" as="sourcePoint" />
            <mxPoint x="355" y="259.31" as="targetPoint" />
          </mxGeometry>
        </mxCell>
        <mxCell id="iIwtEuWf38n39qlFTMff-52" value="" style="endArrow=none;html=1;rounded=0;" parent="1" edge="1">
          <mxGeometry width="50" height="50" relative="1" as="geometry">
            <mxPoint x="355" y="269.31" as="sourcePoint" />
            <mxPoint x="355" y="259.31" as="targetPoint" />
            <Array as="points" />
          </mxGeometry>
        </mxCell>
        <mxCell id="iIwtEuWf38n39qlFTMff-56" value="&lt;span style=&quot;color: rgb(240, 240, 240); font-family: Helvetica; font-size: 12px; font-style: normal; font-variant-ligatures: normal; font-variant-caps: normal; font-weight: 400; letter-spacing: normal; orphans: 2; text-align: left; text-indent: 0px; text-transform: none; widows: 2; word-spacing: 0px; -webkit-text-stroke-width: 0px; background-color: rgb(27, 29, 30); text-decoration-thickness: initial; text-decoration-style: initial; text-decoration-color: initial; float: none; display: inline !important;&quot;&gt;1.3: errorHandler(NoValueInStackToOperate)&lt;/span&gt;" style="text;whiteSpace=wrap;html=1;" parent="1" vertex="1">
          <mxGeometry x="265" y="470" width="245" height="20" as="geometry" />
        </mxCell>
        <mxCell id="iIwtEuWf38n39qlFTMff-57" value="" style="html=1;verticalAlign=bottom;labelBackgroundColor=none;endArrow=block;endFill=1;rounded=0;" parent="1" edge="1">
          <mxGeometry width="160" relative="1" as="geometry">
            <mxPoint x="354.99999999999994" y="500" as="sourcePoint" />
            <mxPoint x="264.99999999999994" y="500" as="targetPoint" />
          </mxGeometry>
        </mxCell>
        <mxCell id="iIwtEuWf38n39qlFTMff-58" value="" style="endArrow=none;html=1;rounded=0;" parent="1" edge="1">
          <mxGeometry width="50" height="50" relative="1" as="geometry">
            <mxPoint x="264.99999999999994" y="489.30999999999995" as="sourcePoint" />
            <mxPoint x="354.99999999999994" y="489.30999999999995" as="targetPoint" />
          </mxGeometry>
        </mxCell>
        <mxCell id="iIwtEuWf38n39qlFTMff-59" value="" style="endArrow=none;html=1;rounded=0;" parent="1" edge="1">
          <mxGeometry width="50" height="50" relative="1" as="geometry">
            <mxPoint x="355" y="500" as="sourcePoint" />
            <mxPoint x="354.99999999999994" y="489.30999999999995" as="targetPoint" />
            <Array as="points" />
          </mxGeometry>
        </mxCell>
        <mxCell id="liM-f5ZjdnTpu-8rLHDm-13" value="" style="endArrow=none;dashed=1;html=1;dashPattern=1 3;strokeWidth=2;rounded=0;" parent="1" edge="1">
          <mxGeometry width="50" height="50" relative="1" as="geometry">
            <mxPoint x="78.5" y="520.3399999999999" as="sourcePoint" />
            <mxPoint x="570" y="520" as="targetPoint" />
          </mxGeometry>
        </mxCell>
        <mxCell id="liM-f5ZjdnTpu-8rLHDm-14" value="&lt;span style=&quot;color: rgb(240, 240, 240); font-family: Helvetica; font-size: 12px; font-style: normal; font-variant-ligatures: normal; font-variant-caps: normal; font-weight: 400; letter-spacing: normal; orphans: 2; text-align: left; text-indent: 0px; text-transform: none; widows: 2; word-spacing: 0px; -webkit-text-stroke-width: 0px; background-color: rgb(27, 29, 30); text-decoration-thickness: initial; text-decoration-style: initial; text-decoration-color: initial; float: none; display: inline !important;&quot;&gt;1.3: errorHandler(NoValueInVarToOperate)&lt;/span&gt;" style="text;whiteSpace=wrap;html=1;" parent="1" vertex="1">
          <mxGeometry x="265" y="534.5" width="245" height="20" as="geometry" />
        </mxCell>
        <mxCell id="liM-f5ZjdnTpu-8rLHDm-15" value="" style="html=1;verticalAlign=bottom;labelBackgroundColor=none;endArrow=block;endFill=1;rounded=0;" parent="1" edge="1">
          <mxGeometry width="160" relative="1" as="geometry">
            <mxPoint x="354.99999999999994" y="564.5" as="sourcePoint" />
            <mxPoint x="264.99999999999994" y="564.5" as="targetPoint" />
          </mxGeometry>
        </mxCell>
        <mxCell id="liM-f5ZjdnTpu-8rLHDm-16" value="" style="endArrow=none;html=1;rounded=0;" parent="1" edge="1">
          <mxGeometry width="50" height="50" relative="1" as="geometry">
            <mxPoint x="264.99999999999994" y="553.81" as="sourcePoint" />
            <mxPoint x="354.99999999999994" y="553.81" as="targetPoint" />
          </mxGeometry>
        </mxCell>
        <mxCell id="liM-f5ZjdnTpu-8rLHDm-17" value="" style="endArrow=none;html=1;rounded=0;" parent="1" edge="1">
          <mxGeometry width="50" height="50" relative="1" as="geometry">
            <mxPoint x="355" y="564.5" as="sourcePoint" />
            <mxPoint x="354.99999999999994" y="553.81" as="targetPoint" />
            <Array as="points" />
          </mxGeometry>
        </mxCell>
        <mxCell id="liM-f5ZjdnTpu-8rLHDm-18" value="[else]" style="text;html=1;align=center;verticalAlign=middle;resizable=0;points=[];autosize=1;strokeColor=none;fillColor=none;" parent="1" vertex="1">
          <mxGeometry x="112.5" y="524.5" width="50" height="30" as="geometry" />
        </mxCell>
      </root>
    </mxGraphModel>
  </diagram>
</mxfile>
